<svg xmlns="http://www.w3.org/2000/svg" viewBox="0 0 1600 1000" preserveAspectRatio="xMidYMid slice">
  <defs>
    <linearGradient id="base" x1="0" y1="0" x2="1" y2="1">
      <stop offset="0" stop-color="#12382f"/>
      <stop offset="0.48" stop-color="#1f5f4d"/>
      <stop offset="1" stop-color="#d8b15f"/>
    </linearGradient>
    <linearGradient id="shade" x1="0" y1="0" x2="0" y2="1">
      <stop offset="0" stop-color="#ffffff" stop-opacity="0.2"/>
      <stop offset="1" stop-color="#061512" stop-opacity="0.35"/>
    </linearGradient>
    <pattern id="books" width="180" height="250" patternUnits="userSpaceOnUse">
      <rect width="180" height="250" fill="none"/>
      <rect x="0" y="50" width="180" height="10" fill="#fff8e7" opacity="0.18"/>
      <rect x="0" y="188" width="180" height="10" fill="#fff8e7" opacity="0.14"/>
      <rect x="14" y="68" width="20" height="116" rx="2" fill="#f2cf74" opacity="0.35"/>
      <rect x="38" y="84" width="26" height="100" rx="2" fill="#ffffff" opacity="0.23"/>
      <rect x="70" y="64" width="18" height="120" rx="2" fill="#0c251f" opacity="0.28"/>
      <rect x="94" y="76" width="30" height="108" rx="2" fill="#f7e6b5" opacity="0.28"/>
      <rect x="132" y="58" width="22" height="126" rx="2" fill="#ffffff" opacity="0.2"/>
      <rect x="24" y="204" width="28" height="34" rx="2" fill="#ffffff" opacity="0.18"/>
      <rect x="58" y="202" width="18" height="36" rx="2" fill="#f2cf74" opacity="0.32"/>
      <rect x="82" y="210" width="34" height="28" rx="2" fill="#0c251f" opacity="0.22"/>
      <rect x="122" y="198" width="22" height="40" rx="2" fill="#ffffff" opacity="0.2"/>
    </pattern>
    <radialGradient id="light" cx="72%" cy="26%" r="46%">
      <stop offset="0" stop-color="#fff1bf" stop-opacity="0.52"/>
      <stop offset="0.48" stop-color="#fff1bf" stop-opacity="0.08"/>
      <stop offset="1" stop-color="#fff1bf" stop-opacity="0"/>
    </radialGradient>
  </defs>
  <rect width="1600" height="1000" fill="url(#base)"/>
  <rect width="1600" height="1000" fill="url(#books)" opacity="0.9"/>
  <path d="M0 690 C270 610 420 780 690 710 C950 642 1110 520 1600 600 L1600 1000 L0 1000 Z" fill="#071c17" opacity="0.28"/>
  <path d="M0 820 C260 760 510 890 780 810 C1040 732 1280 735 1600 675 L1600 1000 L0 1000 Z" fill="#fff8e7" opacity="0.09"/>
  <rect width="1600" height="1000" fill="url(#light)"/>
  <rect width="1600" height="1000" fill="url(#shade)"/>
</svg>
